<svg width="210" height="127" viewBox="0 0 210 127" fill="none" xmlns="http://www.w3.org/2000/svg">
<path d="M17.959 57.5859C14.6191 57.5859 11.7578 56.8926 9.375 55.5059C7.01172 54.1191 5.19531 52.2637 3.92578 49.9395C2.67578 47.6152 2.05078 45.0469 2.05078 42.2344V41.0918C2.05078 37.9277 2.64648 35.1152 3.83789 32.6543C5.04883 30.1934 6.76758 28.2598 8.99414 26.8535C11.2207 25.4277 13.877 24.7148 16.9629 24.7148C21.5527 24.7148 25.0488 26.1406 27.4512 28.9922C29.8535 31.8242 31.0547 35.5938 31.0547 40.3008V44.0508H11.0449C11.3574 45.9844 12.1582 47.5371 13.4473 48.709C14.7559 49.8613 16.4453 50.4375 18.5156 50.4375C20.0195 50.4375 21.416 50.1641 22.7051 49.6172C24.0137 49.0508 25.1367 48.1719 26.0742 46.9805L30.3516 51.873C29.3555 53.2988 27.8125 54.6074 25.7227 55.7988C23.6328 56.9902 21.0449 57.5859 17.959 57.5859ZM16.9043 31.834C15.166 31.834 13.8379 32.4199 12.9199 33.5918C12.002 34.7441 11.3965 36.248 11.1035 38.1035H22.3535V37.4004C22.334 35.7793 21.8848 34.4512 21.0059 33.416C20.1465 32.3613 18.7793 31.834 16.9043 31.834ZM52.8809 25.3008H62.1387L51.5332 57H42.9785L32.3438 25.3008H41.6602L47.2559 46.1602L52.8809 25.3008ZM80.5371 57.5859C77.1973 57.5859 74.3359 56.8926 71.9531 55.5059C69.5898 54.1191 67.7734 52.2637 66.5039 49.9395C65.2539 47.6152 64.6289 45.0469 64.6289 42.2344V41.0918C64.6289 37.9277 65.2246 35.1152 66.416 32.6543C67.627 30.1934 69.3457 28.2598 71.5723 26.8535C73.7988 25.4277 76.4551 24.7148 79.541 24.7148C84.1309 24.7148 87.627 26.1406 90.0293 28.9922C92.4316 31.8242 93.6328 35.5938 93.6328 40.3008V44.0508H73.623C73.9355 45.9844 74.7363 47.5371 76.0254 48.709C77.334 49.8613 79.0234 50.4375 81.0938 50.4375C82.5977 50.4375 83.9941 50.1641 85.2832 49.6172C86.5918 49.0508 87.7148 48.1719 88.6523 46.9805L92.9297 51.873C91.9336 53.2988 90.3906 54.6074 88.3008 55.7988C86.2109 56.9902 83.623 57.5859 80.5371 57.5859ZM79.4824 31.834C77.7441 31.834 76.416 32.4199 75.498 33.5918C74.5801 34.7441 73.9746 36.248 73.6816 38.1035H84.9316V37.4004C84.9121 35.7793 84.4629 34.4512 83.584 33.416C82.7246 32.3613 81.3574 31.834 79.4824 31.834ZM106.904 57H98.0566V25.3008H106.377L106.67 28.9043C108.916 26.1113 111.934 24.7148 115.723 24.7148C117.715 24.7148 119.463 25.1055 120.967 25.8867C122.471 26.6484 123.643 27.918 124.482 29.6953C125.322 31.4727 125.742 33.875 125.742 36.9023V57H116.865V36.8438C116.865 34.8906 116.445 33.582 115.605 32.918C114.766 32.2344 113.555 31.8926 111.973 31.8926C110.801 31.8926 109.795 32.1367 108.955 32.625C108.115 33.1133 107.432 33.7871 106.904 34.6465V57ZM147.803 31.7461H142.441V47.0977C142.441 48.3867 142.695 49.2461 143.203 49.6758C143.73 50.1055 144.551 50.3203 145.664 50.3203C146.191 50.3203 146.66 50.3008 147.07 50.2617C147.48 50.2227 147.832 50.1738 148.125 50.1152L148.096 56.7949C147.373 57.0293 146.582 57.2148 145.723 57.3516C144.883 57.5078 143.936 57.5859 142.881 57.5859C140.029 57.5859 137.764 56.8535 136.084 55.3887C134.424 53.9238 133.594 51.4922 133.594 48.0938V31.7461H129.082V25.3008H133.594V17.4785H142.441V25.3008H147.803V31.7461ZM5.41992 116V90.7461H0.761719V84.3008H5.41992V81.6055C5.41992 77.9727 6.47461 75.1992 8.58398 73.2852C10.7129 71.3516 13.584 70.3848 17.1973 70.3848C17.998 70.3848 18.7598 70.4434 19.4824 70.5605C20.2051 70.6582 20.918 70.7949 21.6211 70.9707L21.5625 77.7969C20.8203 77.6406 19.9609 77.5625 18.9844 77.5625C17.5 77.5625 16.3477 77.9141 15.5273 78.6172C14.707 79.3008 14.2969 80.2969 14.2969 81.6055V84.3008H20.5371V90.7461H14.2969V116H5.41992ZM24.6973 76.127C24.6973 74.8184 25.1465 73.7344 26.0449 72.875C26.9434 72.0156 28.1445 71.5859 29.6484 71.5859C31.1523 71.5859 32.3438 72.0156 33.2227 72.875C34.1211 73.7344 34.5703 74.8184 34.5703 76.127C34.5703 77.4551 34.1211 78.5488 33.2227 79.4082C32.3438 80.248 31.1523 80.668 29.6484 80.668C28.1445 80.668 26.9434 80.248 26.0449 79.4082C25.1465 78.5488 24.6973 77.4551 24.6973 76.127ZM34.1016 116H25.2246V84.3008H34.1016V116ZM49.541 116H40.6934V84.3008H49.0137L49.3066 87.9043C51.5527 85.1113 54.5703 83.7148 58.3594 83.7148C60.3516 83.7148 62.0996 84.1055 63.6035 84.8867C65.1074 85.6484 66.2793 86.918 67.1191 88.6953C67.959 90.4727 68.3789 92.875 68.3789 95.9023V116H59.502V95.8438C59.502 93.8906 59.082 92.582 58.2422 91.918C57.4023 91.2344 56.1914 90.8926 54.6094 90.8926C53.4375 90.8926 52.4316 91.1367 51.5918 91.625C50.752 92.1133 50.0684 92.7871 49.541 93.6465V116ZM73.2715 99.916C73.2715 96.6934 73.75 93.8711 74.707 91.4492C75.6836 89.0078 77.0898 87.1133 78.9258 85.7656C80.7812 84.3984 83.0371 83.7148 85.6934 83.7148C87.2754 83.7148 88.6816 84.0078 89.9121 84.5938C91.1426 85.1797 92.2266 86.0098 93.1641 87.084V71H102.07V116H94.0723L93.6328 112.66C92.6758 113.891 91.5332 114.857 90.2051 115.561C88.877 116.244 87.3535 116.586 85.6348 116.586C83.0176 116.586 80.7812 115.893 78.9258 114.506C77.0898 113.1 75.6836 111.186 74.707 108.764C73.75 106.342 73.2715 103.598 73.2715 100.531V99.916ZM82.1191 100.531C82.1191 103.012 82.5391 105.111 83.3789 106.83C84.2383 108.549 85.7422 109.408 87.8906 109.408C89.1797 109.408 90.2539 109.135 91.1133 108.588C91.9922 108.041 92.6758 107.279 93.1641 106.303V93.9688C92.1484 91.918 90.4102 90.8926 87.9492 90.8926C85.8203 90.8926 84.3164 91.7617 83.4375 93.5C82.5586 95.2188 82.1191 97.3574 82.1191 99.916V100.531ZM123.252 116.586C119.912 116.586 117.051 115.893 114.668 114.506C112.305 113.119 110.488 111.264 109.219 108.939C107.969 106.615 107.344 104.047 107.344 101.234V100.092C107.344 96.9277 107.939 94.1152 109.131 91.6543C110.342 89.1934 112.061 87.2598 114.287 85.8535C116.514 84.4277 119.17 83.7148 122.256 83.7148C126.846 83.7148 130.342 85.1406 132.744 87.9922C135.146 90.8242 136.348 94.5938 136.348 99.3008V103.051H116.338C116.65 104.984 117.451 106.537 118.74 107.709C120.049 108.861 121.738 109.438 123.809 109.438C125.312 109.438 126.709 109.164 127.998 108.617C129.307 108.051 130.43 107.172 131.367 105.98L135.645 110.873C134.648 112.299 133.105 113.607 131.016 114.799C128.926 115.99 126.338 116.586 123.252 116.586ZM122.197 90.834C120.459 90.834 119.131 91.4199 118.213 92.5918C117.295 93.7441 116.689 95.248 116.396 97.1035H127.646V96.4004C127.627 94.7793 127.178 93.4512 126.299 92.416C125.439 91.3613 124.072 90.834 122.197 90.834ZM149.824 116H140.977V84.3008H149.297L149.59 88.0801C150.352 86.7129 151.318 85.6484 152.49 84.8867C153.662 84.1055 155.02 83.7148 156.562 83.7148C157.012 83.7148 157.48 83.7539 157.969 83.832C158.477 83.8906 158.887 83.9785 159.199 84.0957L159.082 92.6211C158.652 92.5625 158.135 92.5137 157.529 92.4746C156.943 92.416 156.426 92.3867 155.977 92.3867C152.832 92.3867 150.781 93.4121 149.824 95.4629V116Z" fill="white"/>
<g clip-path="url(#clip0_162_34)">
<path d="M170.577 77.0724L165.333 81.4055L147.655 59.6473L152.898 55.3159L170.577 77.0724Z" fill="#5D7A7F"/>
<path opacity="0.18" d="M147.917 59.9728L160.891 65.1526L153.156 55.6398C153.156 55.6398 150.471 58.3596 147.917 59.9728Z" fill="black"/>
<path opacity="0.51" d="M125.441 61.2709C139.216 65.9787 154.233 58.5295 158.982 44.6325C163.732 30.7356 156.415 15.6535 142.64 10.9456C128.865 6.23781 113.848 13.6871 109.098 27.584C104.349 41.4809 111.665 56.5631 125.441 61.2709Z" fill="#F2F2F2"/>
<path opacity="0.18" d="M136.691 59.0188C131.785 58.7767 126.984 57.5113 122.597 55.304C118.364 53.2036 114.081 50.2391 111.264 46.3669C110.074 44.7701 109.127 43.0058 108.455 41.1315C109.868 47.9228 113.907 53.8805 119.694 57.7067C128.842 63.7568 140.384 63.3001 148.961 57.4627C145.053 58.7724 140.772 59.1981 136.691 59.0188Z" fill="black"/>
<path d="M185.529 99.3216L183.268 101.189C182.915 101.482 182.508 101.702 182.07 101.837C181.631 101.972 181.17 102.018 180.714 101.974C180.258 101.929 179.815 101.794 179.411 101.577C179.007 101.36 178.65 101.065 178.361 100.71L160.236 78.4057C160.14 78.2864 160.095 78.1342 160.111 77.982C160.126 77.8298 160.201 77.6898 160.319 77.5924L167.103 71.9943C167.161 71.9462 167.229 71.9101 167.301 71.8881C167.373 71.8661 167.449 71.8585 167.524 71.8659C167.599 71.8732 167.672 71.8954 167.738 71.931C167.804 71.9667 167.863 72.0151 167.911 72.0735L186.032 94.3764C186.616 95.1009 186.891 96.0265 186.797 96.9523C186.702 97.8782 186.247 98.7296 185.529 99.3216Z" fill="#153E49"/>
<path d="M171.198 75.7803L163.528 82.114L162.777 81.1895L170.447 74.8557L171.198 75.7803Z" fill="#F77857"/>
<path d="M172.953 78.0369L165.283 84.3722L164.531 83.4471L172.202 77.1123L172.953 78.0369Z" fill="#F77857"/>
<path d="M151.907 58.0955C139.812 68.0802 121.961 66.3418 112.11 54.2186C102.259 42.0954 104.09 24.1095 116.175 14.1215C128.26 4.13355 146.113 5.87467 155.968 17.9989C165.822 30.1232 163.999 48.1103 151.907 58.0955ZM117.804 16.1259C106.812 25.2011 105.155 41.5489 114.108 52.5678C123.06 63.5866 139.287 65.167 150.277 56.0912C161.268 47.0154 162.926 30.6681 153.973 19.6508C145.02 8.63359 128.794 7.05007 117.804 16.1259Z" fill="#153E49"/>
<path opacity="0.61" d="M144.141 15.4543C140.891 13.3263 136.812 12.4869 132.955 12.8182C129.628 13.099 125.98 14.5629 124.077 17.4636C123.791 17.8973 124.18 18.6505 124.745 18.3616C127.391 17.003 130.067 15.9278 133.053 15.7081C136.468 15.4577 139.575 16.6721 142.67 17.9177C144.13 18.5051 145.55 16.3769 144.141 15.4543Z" fill="white"/>
<path d="M125.413 60.9054C111.815 56.258 104.566 41.3173 109.255 27.5968C113.944 13.8764 128.821 6.49752 142.419 11.1449C156.018 15.7923 163.268 30.7351 158.579 44.454C153.891 58.1728 139.007 65.5511 125.413 60.9054ZM142.258 11.6177C128.918 7.0587 114.323 14.2965 109.723 27.7568C105.123 41.2171 112.235 55.8736 125.575 60.4326C138.914 64.9916 153.511 57.7543 158.111 44.294C162.711 30.8337 155.599 16.1772 142.258 11.6177V11.6177Z" fill="#BA656D"/>
</g>
<defs>
<clipPath id="clip0_162_34">
<rect width="97.9428" height="75.8296" fill="white" transform="translate(116.523) rotate(18.8685)"/>
</clipPath>
</defs>
</svg>
