<svg width="54" height="59" viewBox="0 0 54 59" fill="none" xmlns="http://www.w3.org/2000/svg">
<path d="M17.959 48.5859C14.6191 48.5859 11.7578 47.8926 9.375 46.5059C7.01172 45.1191 5.19531 43.2637 3.92578 40.9395C2.67578 38.6152 2.05078 36.0469 2.05078 33.2344V32.0918C2.05078 28.9277 2.64648 26.1152 3.83789 23.6543C5.04883 21.1934 6.76758 19.2598 8.99414 17.8535C11.2207 16.4277 13.877 15.7148 16.9629 15.7148C21.5527 15.7148 25.0488 17.1406 27.4512 19.9922C29.8535 22.8242 31.0547 26.5938 31.0547 31.3008V35.0508H11.0449C11.3574 36.9844 12.1582 38.5371 13.4473 39.709C14.7559 40.8613 16.4453 41.4375 18.5156 41.4375C20.0195 41.4375 21.416 41.1641 22.7051 40.6172C24.0137 40.0508 25.1367 39.1719 26.0742 37.9805L30.3516 42.873C29.3555 44.2988 27.8125 45.6074 25.7227 46.7988C23.6328 47.9902 21.0449 48.5859 17.959 48.5859ZM16.9043 22.834C15.166 22.834 13.8379 23.4199 12.9199 24.5918C12.002 25.7441 11.3965 27.248 11.1035 29.1035H22.3535V28.4004C22.334 26.7793 21.8848 25.4512 21.0059 24.416C20.1465 23.3613 18.7793 22.834 16.9043 22.834Z" fill="white"/>
<g clip-path="url(#clip0_161_32)">
<path d="M39.0332 40.5408L37.0231 42.2015L30.2473 33.862L32.2572 32.2018L39.0332 40.5408Z" fill="#5D7A7F"/>
<path opacity="0.18" d="M30.348 33.9867L35.3205 35.972L32.3561 32.3259C32.3561 32.3259 31.3268 33.3684 30.348 33.9867Z" fill="black"/>
<path opacity="0.51" d="M21.733 34.4842C27.0128 36.2887 32.7686 33.4335 34.589 28.107C36.4094 22.7805 33.605 16.9997 28.3252 15.1953C23.0454 13.3909 17.2895 16.246 15.4691 21.5725C13.6488 26.899 16.4532 32.6798 21.733 34.4842Z" fill="#F2F2F2"/>
<path opacity="0.18" d="M26.045 33.621C24.1647 33.5282 22.3246 33.0432 20.6429 32.1972C19.0205 31.3922 17.379 30.2559 16.2991 28.7717C15.843 28.1597 15.4803 27.4835 15.2225 26.7651C15.7641 29.3681 17.3125 31.6516 19.5302 33.1181C23.0365 35.437 27.4604 35.262 30.748 33.0246C29.2501 33.5266 27.6093 33.6898 26.045 33.621Z" fill="black"/>
<path d="M44.764 49.0685L43.8973 49.7842C43.7622 49.8966 43.6061 49.981 43.438 50.0326C43.27 50.0843 43.0935 50.102 42.9185 50.085C42.7436 50.0679 42.5738 50.0162 42.419 49.9331C42.2641 49.8499 42.1273 49.7369 42.0164 49.6005L35.0697 41.0517C35.0329 41.006 35.0157 40.9477 35.0216 40.8893C35.0276 40.831 35.0563 40.7774 35.1015 40.74L37.7017 38.5943C37.724 38.5759 37.7497 38.5621 37.7774 38.5536C37.805 38.5452 37.834 38.5423 37.8628 38.5451C37.8916 38.5479 37.9195 38.5564 37.945 38.5701C37.9704 38.5838 37.993 38.6023 38.0112 38.6247L44.9568 47.1731C45.1806 47.4508 45.286 47.8055 45.2499 48.1604C45.2138 48.5153 45.0392 48.8416 44.764 49.0685Z" fill="#153E49"/>
<path d="M39.2711 40.0455L36.3314 42.4731L36.0436 42.1187L38.9834 39.6911L39.2711 40.0455Z" fill="#F77857"/>
<path d="M39.9439 40.9104L37.004 43.3386L36.7157 42.984L39.6562 40.556L39.9439 40.9104Z" fill="#F77857"/>
<path d="M31.8781 33.2677C27.2425 37.0947 20.4005 36.4284 16.6248 31.7817C12.8491 27.1351 13.5507 20.2413 18.1827 16.4131C22.8147 12.5849 29.6577 13.2522 33.4346 17.8993C37.2116 22.5463 36.5131 29.4405 31.8781 33.2677ZM18.8071 17.1813C14.5942 20.6598 13.959 26.9256 17.3904 31.149C20.8218 35.3723 27.0414 35.9781 31.2537 32.4994C35.4661 29.0208 36.1018 22.7552 32.6702 18.5324C29.2386 14.3097 23.0194 13.7027 18.8071 17.1813Z" fill="#153E49"/>
<path opacity="0.61" d="M28.9007 16.9234C27.6548 16.1078 26.0914 15.786 24.613 15.913C23.3382 16.0207 21.9396 16.5817 21.2106 17.6936C21.1008 17.8598 21.25 18.1485 21.4665 18.0377C22.4804 17.517 23.5062 17.1049 24.6508 17.0207C25.9596 16.9247 27.1507 17.3902 28.3369 17.8676C28.8963 18.0927 29.4406 17.277 28.9007 16.9234Z" fill="white"/>
<path d="M21.7225 34.3441C16.5105 32.5628 13.7321 26.8363 15.5293 21.5775C17.3266 16.3186 23.0287 13.4904 28.2408 15.2717C33.4528 17.0529 36.2316 22.7803 34.4346 28.0385C32.6375 33.2968 26.9327 36.1248 21.7225 34.3441ZM28.1788 15.4529C23.0659 13.7055 17.4719 16.4796 15.7087 21.6388C13.9455 26.7979 16.6715 32.4155 21.7845 34.1629C26.8974 35.9103 32.492 33.1364 34.2552 27.9772C36.0184 22.8181 33.2923 17.2005 28.1788 15.4529V15.4529Z" fill="#BA656D"/>
</g>
<defs>
<clipPath id="clip0_161_32">
<rect width="37.5401" height="29.0644" fill="white" transform="translate(18.3151 11) rotate(18.8685)"/>
</clipPath>
</defs>
</svg>
